HIERARCHY
ROOT Bip001_Pelvis
{
  OFFSET 34.4345 95.6767 -26.8758
  CHANNELS 6 Xposition Yposition Zposition Zrotation Xrotation Yrotation
  JOINT Bip001_Spine
  {
    OFFSET 1.4188e-005 10.2191 -0.0116013
    CHANNELS 3 Zrotation Xrotation Yrotation
    JOINT Bip001_L_Thigh
    {
      OFFSET 11.0458 -10.2192 0.0116197
      CHANNELS 3 Zrotation Xrotation Yrotation
      JOINT Bip001_L_Calf
      {
        OFFSET -0.707118 -44.0221 0.360014
        CHANNELS 3 Zrotation Xrotation Yrotation
        JOINT Bip001_L_Foot
        {
          OFFSET -0.651902 -40.5938 -3.56146
          CHANNELS 3 Zrotation Xrotation Yrotation
          JOINT Bip001_L_Toe0
          {
            OFFSET 0.0530839 -10.2181 13.1504
            CHANNELS 3 Zrotation Xrotation Yrotation
            End Site
            {
              OFFSET -1.02532e-005 0 7.55606
            }
          }
        }
      }
    }
    JOINT Bip001_R_Thigh
    {
      OFFSET -11.0458 -10.2191 0.0115893
      CHANNELS 3 Zrotation Xrotation Yrotation
      JOINT Bip001_R_Calf
      {
        OFFSET 0.706994 -44.0221 0.35984
        CHANNELS 3 Zrotation Xrotation Yrotation
        JOINT Bip001_R_Foot
        {
          OFFSET 0.651786 -40.5938 -3.5613
          CHANNELS 3 Zrotation Xrotation Yrotation
          JOINT Bip001_R_Toe0
          {
            OFFSET -0.0531479 -10.2181 13.1504
            CHANNELS 3 Zrotation Xrotation Yrotation
            End Site
            {
              OFFSET -1.02894e-005 0 7.55606
            }
          }
        }
      }
    }
    JOINT Bip001_Spine1
    {
      OFFSET 1.87041e-005 14.5736 1.08638
      CHANNELS 3 Zrotation Xrotation Yrotation
      JOINT Bip001_Spine2
      {
        OFFSET 2.24614e-005 14.5058 -1.69078
        CHANNELS 3 Zrotation Xrotation Yrotation
        JOINT Bip001_Neck
        {
          OFFSET 2.20278e-005 15.3945 -0.489414
          CHANNELS 3 Zrotation Xrotation Yrotation
          JOINT Bip001_L_Clavicle
          {
            OFFSET 6.06036 -0.000579998 0.00836775
            CHANNELS 3 Zrotation Xrotation Yrotation
            JOINT Bip001_L_UpperArm
            {
              OFFSET 11.5509 -0.0600302 0.00193952
              CHANNELS 3 Zrotation Xrotation Yrotation
              JOINT Bip001_L_Forearm
              {
                OFFSET 25.9523 0.0806089 -2.15551
                CHANNELS 3 Zrotation Xrotation Yrotation
                JOINT Bip001_L_Hand
                {
                  OFFSET 32.2475 0.153767 1.63968
                  CHANNELS 3 Zrotation Xrotation Yrotation
                  JOINT Bip001_L_Finger0
                  {
                    OFFSET 6.04639 -2.20976 5.90322
                    CHANNELS 3 Zrotation Xrotation Yrotation
                    End Site
                    {
                      OFFSET 4.22375 -1.43895 0.606485
                    }
                  }
                  JOINT Bip001_L_Finger1
                  {
                    OFFSET 11.0826 -0.704819 -0.198153
                    CHANNELS 3 Zrotation Xrotation Yrotation
                    End Site
                    {
                      OFFSET 6.20027 -0.397518 -0.0787166
                    }
                  }
                }
              }
            }
          }
          JOINT Bip001_R_Clavicle
          {
            OFFSET -6.06037 -0.000563197 0.00835105
            CHANNELS 3 Zrotation Xrotation Yrotation
            JOINT Bip001_R_UpperArm
            {
              OFFSET -11.5509 -0.0599978 0.00190698
              CHANNELS 3 Zrotation Xrotation Yrotation
              JOINT Bip001_R_Forearm
              {
                OFFSET -25.9523 0.0806822 -2.15589
                CHANNELS 3 Zrotation Xrotation Yrotation
                JOINT Bip001_R_Hand
                {
                  OFFSET -32.2475 0.153859 1.63989
                  CHANNELS 3 Zrotation Xrotation Yrotation
                  JOINT Bip001_R_Finger0
                  {
                    OFFSET -6.04641 -2.20976 5.90317
                    CHANNELS 3 Zrotation Xrotation Yrotation
                    End Site
                    {
                      OFFSET -4.22376 -1.43895 0.60647
                    }
                  }
                  JOINT Bip001_R_Finger1
                  {
                    OFFSET -11.0826 -0.704794 -0.198182
                    CHANNELS 3 Zrotation Xrotation Yrotation
                    End Site
                    {
                      OFFSET -6.20028 -0.397504 -0.0787333
                    }
                  }
                }
              }
            }
          }
          JOINT Bip001_Head
          {
            OFFSET 1.09673e-005 11.2744 2.05948
            CHANNELS 3 Zrotation Xrotation Yrotation
            End Site
            {
              OFFSET 2.89576e-005 20.8808 -2.77728e-005
            }
          }
        }
      }
    }
  }
}
MOTION
Frames:	11
Frame Time:	0.04
34.9799 91.5784 -29.3125 -5.31561 -10.0604 10.0521 0.54992 2.89625 -0.166116 15.2454 -10.3541 10.102 -1.44455 39.0626 -10.6509 7.93477 -18.1171 0.885019 1.68265 -5.76092 -0.969714 -0.233695 -0.422965 -1.68594 3.95837 26.3724 -0.154272 -13.5459 -11.1747 -14.2611 4.46143 -13.7846 4.30192 1.11039 5.79074 -0.360771 1.11039 5.79076 -0.360769 4.99979 -10.732 1.56431 -26.0844 13.9825 -6.54735 -47.2256 37.1543 4.06042 19.8975 2.74498 -35.3753 6.96257 2.59823 -4.81518 6.36111e-015 0 6.36111e-015 3.18055e-015 0 6.36111e-015 10.0933 15.4522 16.9297 79.1997 -55.2308 56.4837 -45.0008 -14.6933 108.07 -18.5115 10.0775 3.90471 9.93923e-017 7.95139e-016 6.70898e-016 1.98785e-016 1.59028e-015 4.09993e-016 -8.65283 1.6225 4.55351 
35.5285 92.0202 -29.2189 -4.91721 -9.60745 11.9706 0.268529 2.8164 0.501135 14.2916 -10.6291 9.18312 -0.471143 37.4923 -12.2743 7.72124 -17.4553 0.811714 1.68437 -5.62869 -1.06193 -0.0436066 0.738093 -3.23646 3.15848 23.9193 -0.0259819 -13.0046 -9.85501 -14.5241 4.52034 -13.9127 4.3033 0.51344 5.63513 0.990834 0.513442 5.6351 0.990834 4.29686 -11.9296 -1.02934 -26.97 14.2097 -4.35093 -44.5952 38.6968 2.88506 19.8658 3.21114 -33.8354 5.88654 2.76917 -4.40471 3.18055e-015 0 -6.36111e-015 3.18055e-015 0 -3.18055e-015 7.55247 16.7549 20.7912 74.3003 -49.3137 56.7578 -47.3008 -12.3631 103.27 -17.2482 10.3574 2.88694 -5.51738e-033 -3.18055e-015 -9.93923e-017 1.98785e-016 0 9.93923e-017 -7.93197 2.90021 1.81429 
35.7566 92.5359 -29.373 -5.25296 -8.44265 13.6008 0.0409306 2.60904 1.18358 14.2081 -11.6333 9.04386 0.24406 35.8247 -14.3284 7.89994 -16.3693 0.758509 1.76702 -5.71703 -1.16242 0.951251 1.30143 -3.72256 2.52621 20.6036 -0.156174 -12.4824 -7.95209 -15.4339 4.50013 -13.8359 4.26828 0.0277615 5.21827 2.36896 0.0277598 5.21834 2.36896 3.40289 -12.9945 -3.50347 -27.307 14.3979 -2.51739 -42.2236 39.9863 1.83785 19.806 3.57296 -32.1434 5.27811 2.74166 -4.10747 3.18055e-015 -6.36111e-015 -6.36111e-015 9.54166e-015 -3.18056e-015 -3.18055e-015 5.20694 17.6514 24.3666 65.5371 -42.3499 54.9393 -48.4793 -9.60308 92.5624 -16.2276 11.5732 3.60485 7.95139e-016 -6.36111e-015 3.97569e-016 1.98626e-031 -9.54167e-015 1.19271e-015 -6.99961 4.15838 -0.877089 
35.9698 93.1677 -29.6056 -5.21645 -7.00939 15.226 -0.25735 2.44626 1.72766 13.4666 -12.4355 7.59887 0.271953 33.2378 -14.8233 7.69767 -14.8172 0.635262 1.66145 -5.77319 -1.13019 1.42902 1.81663 -4.3484 1.9891 16.865 -0.292216 -11.8469 -5.98845 -16.0613 4.43393 -13.635 4.15003 -0.589226 4.88358 3.47106 -0.589235 4.88356 3.47107 1.8893 -13.9736 -5.60468 -26.8299 14.7108 -0.85126 -40.4165 39.8041 1.03632 20.038 4.48004 -31.0184 5.00525 2.75567 -3.51988 -3.53112e-031 6.36111e-015 3.18055e-015 -3.18055e-015 0 3.18055e-015 3.77478 18.3554 27.3833 43.5932 -30.5258 45.4146 -48.248 -12.5764 70.1013 -16.134 12.793 4.09526 1.59028e-015 0 -0 4.77083e-015 0 7.95139e-016 -5.63434 5.70119 -3.4047 
36.1629 93.7387 -29.8776 -5.13976 -5.38895 16.5534 -0.510524 2.21504 2.21347 12.5877 -13.126 7.06494 0.603078 30.5081 -15.9184 7.78164 -12.983 0.521204 1.75374 -6.01367 -1.33124 1.51322 2.14809 -4.99147 1.66278 13.2991 -0.649118 -11.1737 -4.3104 -16.2981 4.30495 -13.3222 4.07052 -1.11401 4.40824 4.45387 -1.11085 4.40847 4.45686 0.0843725 -14.4925 -7.48261 -26.5617 14.6512 0.917649 -39.2758 39.128 1.43844 19.895 4.30056 -30.5576 4.91244 2.92527 -2.82911 6.36111e-015 -3.18055e-015 -3.18055e-015 6.36111e-015 -3.18056e-015 -6.36111e-015 1.52577 18.0387 30.0279 29.7186 -20.9616 44.1906 -52.4943 -15.0996 45.024 -15.255 12.3193 7.86239 -3.18055e-015 -6.36111e-015 -1.59028e-015 -3.18055e-015 -3.18056e-015 -4.77083e-015 -4.2945 8.46755 -5.69399 
36.1463 94.2371 -30.1397 -5.37147 -3.96543 17.9561 -0.763225 1.97823 2.23184 12.4543 -13.8703 6.66408 0.479744 28.3246 -16.7218 6.84886 -12.0283 0.397997 1.37253 -5.53811 -1.09054 2.02659 2.63706 -5.17177 1.35129 9.59068 -0.84764 -10.6609 -2.47364 -16.8063 4.1719 -12.9737 3.95193 -1.60442 3.92504 4.49383 -1.60442 3.92504 4.49382 -0.692062 -12.8027 -8.52618 -25.4014 12.502 2.28827 -39.1825 38.3198 2.52505 19.5049 3.59906 -30.8107 4.92107 2.85551 -2.41914 3.18055e-015 1.27222e-014 -0 3.18055e-015 9.54167e-015 -3.18055e-015 2.35947 16.6317 31.6378 52.7655 -30.9951 64.8227 -63.1301 -2.61374 57.6412 8.48038 0.227604 -3.59564 6.36111e-015 3.18055e-015 6.36111e-015 6.36111e-015 6.36111e-015 6.36111e-015 -2.87391 8.76879 -7.25225 
36.1534 94.5718 -30.3156 -5.31358 -3.25408 19.1799 -0.942612 1.90012 2.00935 12.1143 -13.947 6.38419 0.411487 26.3384 -17.2386 7.236 -10.5012 0.314588 1.62527 -5.95536 -1.31085 2.26963 3.53566 -5.70043 1.05002 6.51556 -1.08928 -10.2069 -1.15564 -16.6571 4.05733 -12.6707 3.85053 -1.94553 3.76585 4.05603 -1.94898 3.76559 4.05525 1.40605 -10.3625 -9.52611 -25.143 9.39258 2.94155 -41.744 37.3284 4.22457 18.7364 3.20259 -30.598 5.6848 2.8772 -2.15381 4.77083e-015 6.36111e-015 -6.36111e-015 1.11319e-014 3.18056e-015 -6.36111e-015 2.24243 14.5341 31.215 53.4712 -33.9393 70.9406 -66.9869 2.9736 63.7228 14.7931 -4.77917 -11.9514 3.18055e-015 0 -0 6.36111e-015 0 -0 -4.05254 8.04693 -7.52021 
36.3638 94.7765 -30.4903 -4.82009 -3.30896 18.763 -0.736189 2.00755 1.88736 11.0647 -13.0882 6.8975 0.996961 24.9581 -17.2294 6.2599 -10.315 0.274365 1.39875 -5.3112 -1.16652 1.45841 4.09835 -6.02841 0.882423 5.38597 -1.00454 -9.75601 -0.725632 -15.8596 4.01148 -12.5704 3.84001 -1.54014 3.98959 3.79468 -1.54014 3.98961 3.79469 2.92373 -8.57621 -10.3169 -26.428 7.34305 2.18755 -44.2812 36.8017 7.05027 17.6774 3.44596 -30.2727 5.88712 3.17036 -1.95847 -3.18055e-015 -1.27222e-014 -0 -3.18055e-015 -1.27222e-014 -0 -2.31842 10.7369 29.0295 41.1757 -32.8476 64.0341 -63.4703 2.56209 59.9664 8.48026 -0.79596 -7.86192 -3.18055e-015 -6.36111e-015 -0 -3.18055e-015 -6.36111e-015 -1.59028e-015 -6.50594 7.37434 -7.29476 
36.502 95.0314 -30.6538 -4.39434 -3.43558 16.6074 -0.582385 2.1157 1.85237 10.573 -11.5926 6.75662 0.393694 23.3716 -14.7286 5.05428 -10.2699 0.229896 1.18417 -4.57442 -1.02772 0.648523 4.43897 -5.78924 0.617156 4.27996 -0.954248 -9.19793 -0.360075 -14.2813 3.90956 -12.3578 3.85466 -1.23694 4.21125 3.72797 -1.2357 4.21134 3.72904 5.0474 -7.67281 -10.6221 -29.2285 5.94718 1.81105 -45.5665 38.773 9.92517 17.501 4.5773 -29.7882 3.63899 3.16896 -2.39227 -1.59028e-015 0 -1.59028e-015 0 0 -1.59028e-015 -7.08808 8.1073 27.8683 29.7807 -28.8121 57.1681 -62.5697 -1.31848 54.7014 2.18186 4.7003 -2.12513 -6.36111e-015 -3.18055e-015 1.59028e-015 -6.36111e-015 -3.18056e-015 6.36111e-015 -9.56174 6.32478 -6.37129 
36.5341 95.2844 -30.7446 -3.79954 -3.08306 13.375 -0.684319 2.055 1.78738 10.262 -9.58458 8.96795 0.0668543 20.8894 -13.6759 4.36795 -9.69026 0.181299 1.0499 -4.31623 -0.847339 -0.259739 4.00235 -4.89591 0.266232 3.9545 -0.885231 -8.54623 -0.532699 -12.454 3.7636 -12.06 3.85345 -1.43323 4.08746 3.60312 -1.43351 4.08747 3.60289 6.34416 -6.93152 -10.156 -29.5753 5.13956 1.69626 -47.976 43.6758 12.1945 18.0132 6.6454 -28.3418 1.79562 2.48002 -4.23826 3.18055e-015 3.18055e-015 3.18055e-015 3.18055e-015 6.36111e-015 1.59028e-015 -7.75783 7.41726 28.079 30.2384 -27.3688 57.2745 -63.0924 -2.69207 58.6892 -0.975347 5.51506 5.17601 -3.18055e-015 3.18055e-015 1.59028e-015 -3.18055e-015 3.18056e-015 7.95139e-016 -9.82514 5.61484 -5.56353 
36.5242 95.4956 -30.7844 -3.00762 -2.85889 10.2846 -0.76066 1.9595 1.48684 9.64643 -7.3469 8.91498 -0.927649 18.1737 -10.0019 3.47438 -9.15281 0.143207 1.21199 -4.03201 -0.930234 -1.38205 3.60117 -4.79351 -0.0299106 3.94212 -0.551064 -7.87802 -1.13381 -10.0548 3.66187 -11.8309 3.84544 -1.57334 3.89839 3.00218 -1.57334 3.8984 3.00218 5.49783 -6.498 -8.95284 -27.7757 4.99805 2.44312 -51.5958 49.1693 14.7322 19.1445 7.54856 -27.1151 -0.143548 1.84133 -4.31855 -1.59028e-015 6.36111e-015 -7.95139e-016 -1.59028e-015 9.54167e-015 -7.95139e-016 -4.92399 8.18932 28.9241 35.388 -26.3934 59.254 -64.224 -2.37622 68.7771 2.30662 3.45589 6.92551 -3.18055e-015 -3.18055e-015 3.18055e-015 -1.59028e-015 -6.36111e-015 2.38542e-015 -7.7757 5.40247 -5.17819 
